<svg id="a4a50757-733b-48ab-9bd6-990578b011f6" xmlns="http://www.w3.org/2000/svg" viewBox="0 0 941.72 688"><defs><style>.cls-1{fill:#fff;}.cls-2{fill:#4a4a49;}.cls-3{fill:#f2f2f2;}.cls-4{fill:#3f3d56;}.cls-5{fill:#ff7a3c;}.cls-6{fill:#a0616a;}.cls-7{fill:#2f2e41;}.cls-8{fill:#8e949a;}.cls-9{fill:#1d1d1b;}</style></defs><title>RETRORESP</title><path class="cls-1" d="M479.51,18.47a14.88,14.88,0,0,1,15-14.72h382a14.88,14.88,0,0,1,15,14.72V168.58a14.88,14.88,0,0,1-15,14.72h-29v53.95c-21.13-.56-38-17.52-38-38.26V183.3h-315a14.88,14.88,0,0,1-15-14.72Z" transform="translate(-0.02 0)"/><path class="cls-1" d="M667.74,128.5h-382a17,17,0,0,0-17,17v153a17,17,0,0,0,17,17h27v55h1a41,41,0,0,0,41-41v-14h313a17,17,0,0,0,17-17v-153A17,17,0,0,0,667.74,128.5Z" transform="translate(-0.02 0)"/><path class="cls-1" d="M682.74,299.83a14.88,14.88,0,0,1-15,14.71h-315v15.7c0,20.74-16.87,37.69-38,38.25V314.54h-29a14.88,14.88,0,0,1-15-14.71V149.72a14.88,14.88,0,0,1,15-14.72h382a14.88,14.88,0,0,1,15,14.72Z" transform="translate(-0.02 0)"/><path class="cls-2" d="M848.74,242h-1a41,41,0,0,1-41-41V187h-122v-2h124v16a39,39,0,0,0,38,39V185h29a15,15,0,0,0,15-15V17a15,15,0,0,0-15-15h-382a15,15,0,0,0-15,15V128h-2V17a17,17,0,0,1,17-17h382a17,17,0,0,1,17,17V170a17,17,0,0,1-17,17h-27Z" transform="translate(-0.02 0)"/><path class="cls-2" d="M848.51,242.5h-1a41.06,41.06,0,0,1-41-41v-14h-122v-2h124v16a39,39,0,0,0,38,39v-55h29a15,15,0,0,0,15-15V17.5a15,15,0,0,0-15-15h-382a15,15,0,0,0-15,15v111h-2V17.5a17,17,0,0,1,17-17h382a17,17,0,0,1,17,17v153a17,17,0,0,1-17,17h-27Z" transform="translate(-0.02 0)"/><path class="cls-2" d="M812.72,50.51a12.5,12.5,0,0,0-12.48-12h-231a12.5,12.5,0,0,0,0,25h231A12.52,12.52,0,0,0,812.74,51,4,4,0,0,0,812.72,50.51Z" transform="translate(-0.02 0)"/><path class="cls-2" d="M812.72,92.51a12.5,12.5,0,0,0-12.48-12h-231a12.5,12.5,0,0,0,0,25h231A12.52,12.52,0,0,0,812.74,93,4,4,0,0,0,812.72,92.51Z" transform="translate(-0.02 0)"/><path class="cls-2" d="M812.72,134.51a12.5,12.5,0,0,0-12.48-12h-231a12.49,12.49,0,0,0-9.6,4.5,12.36,12.36,0,0,0-1.36,2H668.74a15,15,0,0,1,15,15v3.5h116.5a12.52,12.52,0,0,0,12.5-12.5A4,4,0,0,0,812.72,134.51Z" transform="translate(-0.02 0)"/><path class="cls-3" d="M24.52,684.7c.54.45,1.09.88,1.64,1.3H163.57c1-.42,2-.85,3.05-1.3a161.48,161.48,0,0,0,40.08-25c8-6.78,15.38-13.79,20.72-20.36,7.46-9.16,14.32-19.15,17.52-30.53s2.23-24.43-4.89-33.86a30.17,30.17,0,0,0-8-7.33c-.52-.32-1-.63-1.57-.93a39.88,39.88,0,0,0-28.92-3.47c-13.76,3.55-25.2,13.48-33.36,25.13s-13.46,25-18.68,38.22c-5.3-23.59-21.34-44.73-43-55.47s-48.59-10.62-69.79,1a70.12,70.12,0,0,0-17.85,14.06q-.76.82-1.5,1.68C7,599.89.57,615.23,0,631A67.6,67.6,0,0,0,24.52,684.7Z" transform="translate(-0.02 0)"/><path class="cls-1" d="M158.07,686h2c0-.43.06-.86.09-1.3a146.17,146.17,0,0,1,4.25-25.09,154.7,154.7,0,0,1,24.82-52.11,148,148,0,0,1,42.42-39.16.91.91,0,0,0,.45-.67,1,1,0,0,0-.78-1.12,1,1,0,0,0-.65.11l-.13.08a147.09,147.09,0,0,0-26,20.16,155.81,155.81,0,0,0-33.49,48,151.07,151.07,0,0,0-12.84,49.78C158.14,685.14,158.11,685.57,158.07,686Z" transform="translate(-0.02 0)"/><path class="cls-1" d="M17.38,587.91h.05c1.41.26,2.84.54,4.25.83A192.07,192.07,0,0,1,55.58,599,200.54,200.54,0,0,1,87,615.23a203.22,203.22,0,0,1,28.14,21.43,199.15,199.15,0,0,1,24,26,193,193,0,0,1,14.64,22.06c.25.43.49.87.73,1.3h2.22c-.23-.43-.47-.87-.72-1.3a194.45,194.45,0,0,0-18.12-26.77A201.87,201.87,0,0,0,113,632.19a205.46,205.46,0,0,0-28.75-20.91,202.33,202.33,0,0,0-32.07-15.65,192,192,0,0,0-33.33-9.4l-.94-.18C16.73,585.83,16.21,587.66,17.38,587.91Z" transform="translate(-0.02 0)"/><path class="cls-1" d="M56,655.53a128.07,128.07,0,0,1,40.7.91,131.05,131.05,0,0,1,38.33,13.4,127.39,127.39,0,0,1,19.13,12.64c1,.78-.41,2.15-1.38,1.37A125.69,125.69,0,0,0,118,664.27a129.07,129.07,0,0,0-38.9-7.89,123,123,0,0,0-22.53,1,1,1,0,0,1-1.19-.68,1,1,0,0,1,.68-1.19Z" transform="translate(-0.02 0)"/><path class="cls-4" d="M667.74,129h-382a17,17,0,0,0-17,17V299a17,17,0,0,0,17,17h27v55h1a41,41,0,0,0,41-41V316h313a17,17,0,0,0,17-17V146A17,17,0,0,0,667.74,129Zm15,170a15,15,0,0,1-15,15h-315v16a39.06,39.06,0,0,1-38,39V314h-29a15,15,0,0,1-15-15V146a15,15,0,0,1,15-15h382a15,15,0,0,1,15,15Z" transform="translate(-0.02 0)"/><path class="cls-5" d="M592.24,167.5h-231a12.5,12.5,0,0,0-12.48,12,4,4,0,0,0,0,.49,12.52,12.52,0,0,0,12.5,12.5h231a12.5,12.5,0,0,0,0-25Z" transform="translate(-0.02 0)"/><path class="cls-5" d="M592.24,209.5h-231a12.5,12.5,0,0,0-12.48,12,4,4,0,0,0,0,.49,12.52,12.52,0,0,0,12.5,12.5h231a12.5,12.5,0,0,0,0-25Z" transform="translate(-0.02 0)"/><path class="cls-5" d="M592.24,251.5h-231a12.5,12.5,0,0,0-12.48,12,4,4,0,0,0,0,.49,12.52,12.52,0,0,0,12.5,12.5h231a12.5,12.5,0,0,0,0-25Z" transform="translate(-0.02 0)"/><path class="cls-6" d="M224.73,472.72a12.22,12.22,0,0,1-1.35-.08,11,11,0,0,1-9.58-12.27,10.06,10.06,0,0,1,.22-1.22c.09-.35.19-.7.31-1L181,415.4a11.15,11.15,0,0,1-.27-13.31l11.69-16.23,15.28,11.78-6.14,10.54,24.3,42.6a11.54,11.54,0,0,1,1.45.24,11,11,0,0,1-2.55,21.7Z" transform="translate(-0.02 0)"/><polygon class="cls-6" points="282.45 675.12 294.71 675.12 300.54 627.83 282.45 627.83 282.45 675.12"/><path class="cls-7" d="M318.37,686.5H279.84V671.61h23.64a14.89,14.89,0,0,1,14.89,14.89Z" transform="translate(-0.02 0)"/><polygon class="cls-6" points="181.45 675.12 193.71 675.12 199.54 627.83 181.45 627.83 181.45 675.12"/><path class="cls-7" d="M217.37,686.5H178.84V671.61h23.64a14.89,14.89,0,0,1,14.89,14.89Z" transform="translate(-0.02 0)"/><path class="cls-5" d="M189,388.16l27.53,10.46L223.24,380a11.16,11.16,0,0,0-5-13.5h0A11.17,11.17,0,0,0,204,369.24Z" transform="translate(-0.02 0)"/><path class="cls-7" d="M280.29,637a5,5,0,0,1-4.8-3.73c-13.72-52.51-27.66-78.83-42.6-109.27a4,4,0,0,0-7.5,1.16l-18.52,107a5,5,0,0,1-5,4.22l-27.5-.67a4.91,4.91,0,0,1-3.53-1.61,4.45,4.45,0,0,1-1.31-3.64C182,548.31,191.76,474,210.62,451.27a6.66,6.66,0,0,1,1.77-1.2l-.57-.09c-.17,0-.6-.09-.61-.53V449l.43-.09a5.58,5.58,0,0,1,2,.31l43,6.62a5,5,0,0,1,4.22,5c2.34,10.94,5.92,27.47,6.24,28.28,23,43.66,31.88,78,41.14,136.75a5,5,0,0,1-3.81,5.62l-23.08,5.27A5.35,5.35,0,0,1,280.29,637Z" transform="translate(-0.02 0)"/><path class="cls-5" d="M256.13,463a5,5,0,0,1-1.15-.13l-42.37-10.08a4.92,4.92,0,0,1-3.12-2.31,5.11,5.11,0,0,1-.48-4c4.57-15.84-1.43-35.48-8.58-54.34a26,26,0,0,1,14.22-27.59l.11-.06L237,365.66a25,25,0,0,1,16.57,14.18c8.57,20.07,11,45.82,7.5,78.73a5,5,0,0,1-4.95,4.46Z" transform="translate(-0.02 0)"/><path class="cls-6" d="M261.83,417.22a10.88,10.88,0,0,1-6.31-2l-16.41-11.7,11.71-15.33,10.57,6.09,42.48-24.51a10,10,0,0,1,.23-1.45,11,11,0,1,1,8.19,13.22,9.49,9.49,0,0,1-1-.3l-42.67,33.66A10.92,10.92,0,0,1,261.83,417.22Z" transform="translate(-0.02 0)"/><path class="cls-5" d="M233.9,408.29l24.35-16.56L246.8,375.52a11.16,11.16,0,0,0-13.92-3.64h0a11.16,11.16,0,0,0-5.9,13.28Z" transform="translate(-0.02 0)"/><circle class="cls-6" cx="222.17" cy="331.66" r="24.56"/><path class="cls-7" d="M224.44,356.79c-3.69,0-6.53-3.9-6.37-7.58s2.64-6.92,5.62-9.09,6.48-3.49,9.8-5.09,6.62-3.59,8.67-6.65a14.7,14.7,0,0,0,1-13.5,21.71,21.71,0,0,0-9.33-10.23,28.39,28.39,0,0,0-37.61,8.25L192,324.36c-4.28,5.16-5,12.81-2.33,19s8.25,10.81,14.58,13a35.8,35.8,0,0,0,19.84.6" transform="translate(-0.02 0)"/><path class="cls-7" d="M197.9,320a18.85,18.85,0,0,0-31.29-.51c-3,4.25-4,9.49-6.06,14.26a37.8,37.8,0,0,1-18.8,19.3c7.38,1.3,14.73-2.46,20.63-7.08s11.08-10.25,17.69-13.78A33.29,33.29,0,0,1,197,328.32" transform="translate(-0.02 0)"/><path class="cls-4" d="M404.63,688h-381a1,1,0,1,1,0-2h381a1,1,0,1,1,0,2Z" transform="translate(-0.02 0)"/><circle class="cls-8" cx="882.72" cy="307" r="59"/><path class="cls-9" d="M888.37,349.05c-2.41-.06-5.4-.15-7.7-1.83a5.93,5.93,0,0,1-2.33-4.41,4,4,0,0,1,1.36-3.27,5.14,5.14,0,0,1,4.85-.7l-2-14.33,1.44-.2,2.3,16.85-1.2-.55c-1.39-.64-3.31-1-4.5,0a2.53,2.53,0,0,0-.83,2.1,4.48,4.48,0,0,0,1.73,3.3c1.79,1.3,4.17,1.47,6.88,1.55Z" transform="translate(-0.02 0)"/><rect class="cls-9" x="867.62" y="325.74" width="7.83" height="1.45"/><rect class="cls-9" x="892.33" y="325.74" width="7.83" height="1.45"/><path class="cls-9" d="M854,305.67c-6.31-.72-11.19-6.76-11.73-12.89-.63-7.29,3.61-14.21,9.44-18.3,6.09-4.28,13.68-6.07,21-6.46a57.75,57.75,0,0,1,39.5,13c5.5,4.57,10.64,10.39,12.59,17.42,1.69,6.11.32,13-4.6,17.3a11.6,11.6,0,0,1-8.91,2.75c-3.81-.4-7.32-2.4-10.37-4.62-5.92-4.3-10.78-10.3-18-12.55-5.29-1.65-12.16-.2-15.39,4.59a8.71,8.71,0,0,0-1.39,3.64,1.14,1.14,0,0,0,.76,1.35,1.12,1.12,0,0,0,1.35-.77c.84-6,8.25-8.27,13.45-6.89,7.58,2,12.67,8.77,18.88,13.06a22.93,22.93,0,0,0,11,4.39,13.69,13.69,0,0,0,9.6-2.94c5.31-4.2,7.34-11.41,6.17-17.91-1.36-7.52-6.43-14-12-19a60,60,0,0,0-41-15.13c-7.68.18-15.7,1.76-22.32,5.83-6.42,3.94-11.39,10.53-12,18.19-.57,6.74,3,13.8,9.26,16.75a14.55,14.55,0,0,0,4.65,1.31c1.39.16,1.38-2,0-2.18Z" transform="translate(-0.02 0)"/></svg>