<svg id="f28a0f65-80a1-4e0a-b578-5220816c7620" xmlns="http://www.w3.org/2000/svg" viewBox="0 0 691.34 489.56"><defs><style>.cls-1{fill:#f2f2f2;}.cls-2{fill:#fff;}.cls-3{fill:#2f2e41;}.cls-4{fill:#a0616a;}.cls-5{fill:#ff7a3c;}.cls-6{fill:#3f3d56;}.cls-7{fill:#ccc;}.cls-8{fill:#4a4a49;}</style></defs><title>USUARIOS2</title><circle class="cls-1" cx="532.52" cy="357.23" r="132.33"/><rect class="cls-1" y="2.17" width="542.51" height="370.49"/><path class="cls-1" d="M688.05,159.64c-9.54,33.08-37.39,56.24-66.43,75.91q-6.09,4.13-12.17,8.06l-.09,0-.57.37-2.51,1.62.46.2s.45.24,0,0l-.45-.18c-16.87-6.8-34-14.11-47-26.86-13.41-13.24-21.25-34-14-51.4a34,34,0,0,1,3.6-6.45c.59-.84,1.22-1.65,1.88-2.44a35.6,35.6,0,0,1,61.14,10.81c2.13-19.86-14.25-36.51-30-48.79s-33.7-25.64-36.75-45.4c-1.7-11,2.12-21.64,9.09-30.2.21-.26.43-.52.65-.77A51.94,51.94,0,0,1,588.26,26.3c24.19-2.51,47.68,10.29,65.25,27.11C681.79,80.46,698.89,122,688.05,159.64Z" transform="translate(0 0)"/><path class="cls-2" d="M642.58,116.36a88.11,88.11,0,0,1,10.58,23.34,76.52,76.52,0,0,1,2.65,22.64c-.43,15.7-5.26,31-12.86,44.71a141.36,141.36,0,0,1-21.33,28.5q-6.09,4.13-12.17,8.06l-.09,0-.57.37-2.51,1.62s.91.44.42.24l-.45-.18A77.48,77.48,0,0,0,548.88,161c.59-.84,1.22-1.65,1.88-2.44a81.86,81.86,0,0,1,13.49,5.1,80.06,80.06,0,0,1,36.21,34.91,81.89,81.89,0,0,1,8.92,44.93c.69-.63,1.39-1.27,2.06-1.91,12.82-12,24.21-25.67,31.92-41.51a91.51,91.51,0,0,0,9.57-43.24c-.63-16.33-7.14-31.46-16.56-44.63-10.1-14.1-22.75-26.57-36.27-37.38A217.53,217.53,0,0,0,555,47a1.56,1.56,0,0,1-.78-2,1.34,1.34,0,0,1,.65-.77,1.19,1.19,0,0,1,1,0c2,.92,4,1.85,5.92,2.82a219.94,219.94,0,0,1,45.42,30C620.59,88.43,633.18,101.45,642.58,116.36Z" transform="translate(0 0)"/><circle class="cls-3" cx="532.41" cy="313.7" r="35.37"/><ellipse class="cls-3" cx="497.04" cy="286.86" rx="14.64" ry="10.98" transform="translate(-57.26 435.48) rotate(-45)"/><ellipse class="cls-3" cx="555.82" cy="277.64" rx="10.98" ry="14.64" transform="translate(82.15 679.72) rotate(-66.87)"/><path class="cls-4" d="M607.32,465.57a131.71,131.71,0,0,1-19.2,11.07l-1-1.75-9.48-16.64-.83-1.46L572,448.28h0l-15.31-26.9-7.87-13.81,23.37-16.39,9.09,19.22,4.93,10.44,20.29,42.91Z" transform="translate(0 0)"/><path class="cls-5" d="M586.44,400.67l-2.93-4.59-13-20.33A16.36,16.36,0,0,0,540.65,389l8,28.54a5.88,5.88,0,0,0,7.24,4.08,6.06,6.06,0,0,0,.75-.27l.08,0,24.51-10.95,2.64-1.18a5.9,5.9,0,0,0,3-7.8,6.58,6.58,0,0,0-.4-.74Z" transform="translate(0 0)"/><path class="cls-4" d="M516,401.31l-6.82,15.4-1.48,3.35-25.25,57-.81,1.83A131.23,131.23,0,0,1,462,468.69l.68-1.92,20.61-58.15,5.06-14.28,11.08,2.79Z" transform="translate(0 0)"/><circle class="cls-4" cx="533.53" cy="322.14" r="30.02"/><path class="cls-5" d="M585.86,407.76a66.41,66.41,0,0,0-2.35-11.68,65,65,0,0,0-18.81-29.84,17.84,17.84,0,0,0-11.9-4.55H510.51a17.78,17.78,0,0,0-15.93,25.78l4.83,9.66,9.79,19.58,2.35,4.69,10.47,21,.83,1.66L576,458.63l.23-.51c.2-.45.4-.89.59-1.33.29-.67.58-1.32.85-2,5.36-12.71,7.89-24,8.5-34A76.08,76.08,0,0,0,585.86,407.76Z" transform="translate(0 0)"/><path class="cls-5" d="M518.18,367.17a16.33,16.33,0,0,0-21.69,7.8l-3.77,5.69-12.6,19a5.89,5.89,0,0,0,1.66,8.17,5.52,5.52,0,0,0,.75.42l.74.35,24.45,11.44,1.74.81a6,6,0,0,0,4.91,0,5.88,5.88,0,0,0,3.23-3.68l8.46-28.31A16.37,16.37,0,0,0,518.18,367.17Z" transform="translate(0 0)"/><path class="cls-3" d="M577.67,454.81a5.58,5.58,0,0,0-.85-1.73,23,23,0,0,0-4.85-4.8h0c-6.43-4.87-19.23-10.56-43.92-10.71h0a5.91,5.91,0,0,0-5.37,3.45l-.61,1.34L518.09,451a4.51,4.51,0,0,1-1.53,1.85c-3.55,2.51-14.85,11.61-20.69,29-.21.62-.41,1.25-.6,1.9a132.17,132.17,0,0,0,76.37-.69l.55-2.27,5.46-22.52.09-.37A5.92,5.92,0,0,0,577.67,454.81Z" transform="translate(0 0)"/><path class="cls-3" d="M502,303.26a40.83,40.83,0,0,0,23.33,7.21,25,25,0,0,1-9.91,4.08,82.24,82.24,0,0,0,33.62.19,21.72,21.72,0,0,0,7-2.42,8.89,8.89,0,0,0,4.35-5.81c.74-4.21-2.55-8-6-10.62a44,44,0,0,0-36.94-7.39c-4.13,1.07-8.26,2.87-10.94,6.19s-3.48,8.42-.92,11.83Z" transform="translate(0 0)"/><rect class="cls-6" x="1.09" y="30.48" width="542.32" height="2.17"/><circle class="cls-6" cx="19.56" cy="16.31" r="6.52"/><circle class="cls-6" cx="38.31" cy="16.31" r="6.52"/><circle class="cls-6" cx="57.06" cy="16.31" r="6.52"/><path class="cls-7" d="M426,156.62H118.15a7,7,0,0,1,0-14H426a7,7,0,1,1,0,14Z" transform="translate(0 0)"/><path class="cls-8" d="M426,231.61H118.15a7,7,0,0,1,0-14H426a7,7,0,1,1,0,14Z" transform="translate(0 0)"/><path class="cls-8" d="M426,260.38H118.15a7,7,0,0,1,0-13.95H426a7,7,0,1,1,0,13.95Z" transform="translate(0 0)"/><path class="cls-7" d="M375.81,127H168.29a7,7,0,1,1,0-14H375.81a7,7,0,1,1,0,14Z" transform="translate(0 0)"/><path class="cls-8" d="M226.67,202.84H118.54a7,7,0,0,1,0-14H226.67a7,7,0,0,1,0,14Z" transform="translate(0 0)"/><path class="cls-8" d="M426.34,202.84H318.22a7,7,0,0,1,0-14H426.34a7,7,0,0,1,0,14Z" transform="translate(0 0)"/><path class="cls-6" d="M536.88,0H7.6A7.61,7.61,0,0,0,0,7.61V366.26a7.61,7.61,0,0,0,7.6,7.6H403.39c-.1-.72-.18-1.45-.26-2.17H7.6a5.43,5.43,0,0,1-5.43-5.43V7.61A5.44,5.44,0,0,1,7.6,2.17H536.88a5.45,5.45,0,0,1,5.44,5.44V227.42c.72.05,1.45.11,2.17.18V7.61A7.61,7.61,0,0,0,536.88,0Z" transform="translate(0 0)"/><path class="cls-6" d="M403.39,373.86c-.1-.72-.18-1.45-.26-2.17,0-.11,0-.21,0-.32q-.43-3.94-.63-8-.82,3.47-1.49,7c0,.34.06.67.1,1,0,.11,0,.21,0,.32.08.72.16,1.45.26,2.17.28,2.23.62,4.43,1,6.62l0-.26c.28-2.11.6-4.21,1-6.31A.09.09,0,0,1,403.39,373.86Zm141.1-148.27c-.72-.07-1.45-.13-2.17-.18l-.32,0c-3.2-.24-6.44-.36-9.7-.36a132,132,0,0,0-132,132.08,130.19,130.19,0,0,0,.67,13.25c0,.34.06.67.1,1,0,.11,0,.21,0,.32.08.72.16,1.45.26,2.17.28,2.23.62,4.43,1,6.62a132.58,132.58,0,0,0,79.27,98.45c2.08.86,4.18,1.68,6.31,2.43,1.4.51,2.8,1,4.22,1.43,1,.33,2.05.64,3.08.94,1.46.43,2.94.84,4.43,1.22a131.36,131.36,0,0,0,107.62-19.38h0A131.93,131.93,0,0,0,664.3,357c0-68.68-52.72-125.27-119.81-131.44Zm62,238.15a129.54,129.54,0,0,1-34.27,17,130.24,130.24,0,0,1-71.08,2.47q-2.64-.64-5.24-1.41t-5.08-1.59c-1.37-.47-2.74-.95-4.1-1.46s-2.82-1.1-4.22-1.68A130.36,130.36,0,0,1,403.4,373.91a.09.09,0,0,1,0-.05c-.1-.72-.18-1.45-.26-2.17,0-.11,0-.21,0-.32q-.43-3.94-.63-8-.16-3.16-.16-6.37a130.15,130.15,0,0,1,130-130c3.26,0,6.5.12,9.7.36l.32,0c.72.05,1.45.11,2.17.18,66,6.16,117.81,61.85,117.81,129.43A129.93,129.93,0,0,1,606.46,463.74Zm-119.77,15c-1.42-.54-2.82-1.1-4.22-1.68A130.36,130.36,0,0,1,403.4,373.91c-.38,2.1-.7,4.2-1,6.31l0,.26a132.58,132.58,0,0,0,79.27,98.45c2.08.86,4.18,1.68,6.31,2.43-.44-.85-.87-1.71-1.28-2.58ZM542,225.39c-3.2-.24-6.44-.36-9.7-.36a132,132,0,0,0-132,132.08,130.19,130.19,0,0,0,.67,13.25c0,.34.06.67.1,1,0,.11,0,.21,0,.32h2c0-.11,0-.21,0-.32q-.43-3.94-.63-8-.16-3.16-.16-6.37a130.15,130.15,0,0,1,130-130c3.26,0,6.5.12,9.7.36l.32,0v-2l-.32,0Z" transform="translate(0 0)"/><path class="cls-5" d="M639.59,258.82c40.55.69,40.54,61,0,61.68C599.05,319.81,599.06,259.5,639.59,258.82Z" transform="translate(0 0)"/><path class="cls-2" d="M639.59,306.45a2.16,2.16,0,0,1-2.16-2.16v-11.5a1,1,0,0,0-1-1H625a2.17,2.17,0,0,1,0-4.34h11.49a1,1,0,0,0,1-1V275a2.17,2.17,0,0,1,4.33,0v11.5a1,1,0,0,0,1,1h11.49a2.17,2.17,0,0,1,0,4.34H642.73a1,1,0,0,0-1,1v11.5A2.17,2.17,0,0,1,639.59,306.45Z" transform="translate(0 0)"/></svg>